<svg xmlns="http://www.w3.org/2000/svg" width="520" height="520" fill="none">
  <g filter="url(#a)">
    <g clip-path="url(#b)">
      <circle cx="260" cy="256" r="256" fill="#000"/>
      <path fill="#fff" d="m289 114 23 38c3 5 7 7 13 7h95l13 1-5 10-48 79c-4 6-3 10 0 16l47 78 6 11-12 1h-96c-6 0-10 2-13 7l-44 74-8 11-7-10-45-76c-3-5-7-6-13-6H87l5-10 48-81c4-5 3-9 0-15l-47-78-6-11 12-1h93c9 0 14-3 18-10l43-73 8-10 28 48Zm-10 67 63 105 69-114H274l5 9Zm-86-10h-84l69 115 69-115h-54Zm95 137h-97l69 115 69-115h-41Zm8-27-30-17c-2-2-6-3-8-2l-57 33h118l-23-14Zm10-29-37-63c-2 16-1 31-3 45 0 11 3 18 14 23 14 7 27 16 41 24l2-1-17-28Zm-52-48v-14l-3-1-54 91 2 1 52-31c2-1 2-5 2-7l1-39ZM146 342h50l-20-32-52 30 1 2h21Zm184-10-5 9h73l-54-31-14 22Zm38-61-18 27a199211 199211 0 0 0 52 29l-34-56Zm-242 43-8 13 1 1 51-30-18-28-26 44Zm124-207-30 51h33v-50l-3-1Zm17 10v41h34l-32-53-2 1v11Z"/>
    </g>
  </g>
  <defs>
    <clipPath id="b">
      <rect width="512" height="512" x="4" fill="#fff" rx="96"/>
    </clipPath>
    <filter id="a" width="520" height="520" x="0" y="0" color-interpolation-filters="sRGB" filterUnits="userSpaceOnUse">
      <feFlood flood-opacity="0" result="BackgroundImageFix"/>
      <feColorMatrix in="SourceAlpha" result="hardAlpha" values="0 0 0 0 0 0 0 0 0 0 0 0 0 0 0 0 0 0 127 0"/>
      <feOffset dy="4"/>
      <feGaussianBlur stdDeviation="2"/>
      <feComposite in2="hardAlpha" operator="out"/>
      <feColorMatrix values="0 0 0 0 0 0 0 0 0 0 0 0 0 0 0 0 0 0 0.25 0"/>
      <feBlend in2="BackgroundImageFix" result="effect1_dropShadow_1_2"/>
      <feBlend in="SourceGraphic" in2="effect1_dropShadow_1_2" result="shape"/>
    </filter>
  </defs>
</svg>
